Coordinates
version=1
nRows=9
nColumns=24
inDegrees=yes

Units are S.I. units (second, meters, Newtons, ...)
Angles are in degrees.

endheader
time	pelvis_tilt	pelvis_list	pelvis_rotation	pelvis_tx	pelvis_ty	pelvis_tz	hip_flexion_r	hip_adduction_r	hip_rotation_r	knee_angle_r	ankle_angle_r	subtalar_angle_r	mtp_angle_r	hip_flexion_l	hip_adduction_l	hip_rotation_l	knee_angle_l	ankle_angle_l	subtalar_angle_l	mtp_angle_l	lumbar_extension	lumbar_bending	lumbar_rotation
      7.92000000	     -1.25854719	      2.74057279	      2.89653560	     -1.12198894	      0.67330550	      0.14816904	     27.67487785	     -3.78116895	     -5.77931506	    -32.30719771	     -5.55966067	    -32.52073406	      0.00000000	     -2.57862574	      6.42071434	      4.32857105	    -12.73255606	     18.61142700	     -9.68006447	      0.00000000	    -10.75631629	     -3.68316784	     -5.94235838
      7.93000000	     -1.21793835	      3.12505175	      3.26209967	     -1.11311564	      0.67244717	      0.14815407	     27.22903660	     -4.48141471	     -6.61591972	    -27.90520691	     -5.97335047	    -31.38881198	      0.00000000	     -3.81819269	      6.68495965	      4.68507675	    -12.08852818	     18.74252265	     -9.40312568	      0.00000000	    -10.78110820	     -4.02650293	     -6.37577144
      7.94000000	     -1.17070728	      3.56506453	      3.68472004	     -1.10408602	      0.67151636	      0.14813959	     26.69304121	     -5.23769389	     -7.70936000	    -23.51321857	     -5.73998382	    -29.17824634	      0.00000000	     -5.09248841	      6.97455974	      5.08383091	    -11.43692525	     18.79551571	     -9.12023878	      0.00000000	    -10.80371204	     -4.41768033	     -6.85340688
      7.95000000	     -1.13689641	      4.04018111	      4.16238997	     -1.09487699	      0.67049852	      0.14814902	     26.12543031	     -6.00900851	     -9.08622616	    -19.23891902	     -4.88480594	    -25.98210386	      0.00000000	     -6.37767918	      7.26211996	      5.52256371	    -10.78680257	     18.80631734	     -8.79569156	      0.00000000	    -10.79717128	     -4.84109977	     -7.40044302
      7.96000000	     -1.13760185	      4.56474113	      4.68665489	     -1.08551444	      0.66938563	      0.14818490	     25.59668802	     -6.79577538	    -10.73182406	    -15.21277939	     -3.51358096	    -21.92217171	      0.00000000	     -7.61440131	      7.56519628	      5.93854515	    -10.20205498	     18.73517123	     -8.48434794	      0.00000000	    -10.74332540	     -5.31515348	     -8.02696257
      7.97000000	     -1.07787804	      4.99475588	      5.24624751	     -1.07593306	      0.66828634	      0.14829151	     24.99522530	     -7.41593044	    -12.59983646	    -11.47031243	     -1.94092654	    -17.45159616	      0.00000000	     -8.93547964	      7.71695817	      6.47940449	     -9.62630715	     18.70902295	     -8.05231604	      0.00000000	    -10.73602651	     -5.67418918	     -8.53956800
      7.98000000	     -1.09068991	      5.40815076	      5.85332709	     -1.06624371	      0.66710191	      0.14845449	     24.53235910	     -7.97048856	    -14.56753692	     -8.19019732	     -0.26577014	    -12.71406113	      0.00000000	    -10.11865097	      7.81494782	      7.01937262	     -9.18955117	     18.64870143	     -7.62383003	      0.00000000	    -10.65016077	     -6.01952053	     -9.10723117
      7.99000000	     -1.13998496	      5.73871425	      6.48460078	     -1.05645911	      0.66588464	      0.14871424	     24.15714332	     -8.37780112	    -16.35779741	     -5.37402158	      1.17494690	     -8.35721099	      0.00000000	    -11.19672787	      7.79015697	      7.57920566	     -8.88036462	     18.58822729	     -7.17103578	      0.00000000	    -10.52731122	     -6.28969309	     -9.61338442
      8.00000000	     -1.22596178	      5.97839568	      7.12476204	     -1.04658594	      0.66465723	      0.14905090	     23.85775306	     -8.64771976	    -17.75605937	     -3.03637858	      2.24588825	     -4.80448861	      0.00000000	    -12.13710795	      7.65037861	      8.14295721	     -8.74970708	     18.53175410	     -6.70812383	      0.00000000	    -10.35938986	     -6.46314302	    -10.07058375
